<?xml version="1.0" encoding="UTF-8"?>
<svg width="254px" height="60px" viewBox="0 0 254 60" version="1.1" xmlns="http://www.w3.org/2000/svg" xmlns:xlink="http://www.w3.org/1999/xlink">
    <!-- Generator: Sketch 42 (36781) - http://www.bohemiancoding.com/sketch -->
    <title>logo-login</title>
    <desc>Created with Sketch.</desc>
    <defs></defs>
    <g id="Login" stroke="none" stroke-width="1" fill="none" fill-rule="evenodd">
        <g id="sign-in" transform="translate(-513.000000, -116.000000)">
            <g id="logo-login" transform="translate(482.000000, 96.000000)">
                <g>
                    <rect id="Rectangle-4-Copy" x="0" y="0" width="317" height="105" rx="2"></rect>
                    <g id="Group-35-Copy" transform="translate(29.000000, 17.000000)" fill="#E67E22">
                        <text id="Kudobuzz" font-family="TitilliumWeb-SemiBold, Titillium Web" font-size="44.8345479" font-weight="500">
                            <tspan x="70.7780756" y="53.4718749">Kudobuzz</tspan>
                        </text>
                        <g id="Group-3" transform="translate(33.973166, 35.067491) rotate(-22.000000) translate(-33.973166, -35.067491) translate(8.473166, 8.567491)">
                            <path d="M18.9463949,43.4849881 L7.76641941,43.4849881 C6.1083654,43.4849881 4.76576087,42.1567003 4.76576087,40.5148802 L4.76576087,7.68534758 C4.76576087,6.04462405 6.10954686,4.71523967 7.76920014,4.71523967 L43.0655825,4.71523967 C44.7254422,4.71523967 46.0690217,6.04379439 46.0690217,7.68534758 L46.0690217,40.5148802 C46.0690217,42.1557911 44.7260964,43.4849881 43.0683632,43.4849881 L31.8883877,43.4849881 L25.4173913,47.0063071 L18.9463949,43.4849881 Z M25.4173913,52.1883645 L33.0671679,48.0255892 L43.0683632,48.0255892 C47.2610624,48.0255892 50.6582729,44.6631077 50.6582729,40.5148802 L50.6582729,7.68534758 C50.6582729,3.53549155 47.2594116,0.174638506 43.0655825,0.174638506 L7.76920014,0.174638506 C3.57509419,0.174638506 0.176509662,3.53679975 0.176509662,7.68534758 L0.176509662,40.5148802 C0.176509662,44.6644693 3.57385687,48.0255892 7.76641941,48.0255892 L17.7676147,48.0255892 L25.4173913,52.1883645 Z" id="Rectangle" fill-rule="nonzero"></path>
                            <polygon id="K" points="24.0279072 26.0392998 21.6718563 26.0392998 21.6718563 35.6262553 17.1256734 35.6262553 17.1256734 12.6438279 21.6718563 12.6438279 21.6718563 22.0337911 24.0279072 22.0337911 29.3373179 12.6438279 34.5139932 12.6438279 27.9767814 23.7410571 35.3435886 35.6262553 29.7355237 35.6262553"></polygon>
                        </g>
                    </g>
                </g>
            </g>
        </g>
    </g>
</svg>