<?xml version="1.0" encoding="UTF-8"?>
<svg width="290px" height="50px" viewBox="0 0 436 89" version="1.1" xmlns="http://www.w3.org/2000/svg" xmlns:xlink="http://www.w3.org/1999/xlink">
    <!-- Generator: Sketch 53.2 (72643) - https://sketchapp.com -->
    <title>kudobuzz-logo</title>
    <desc>Created with Sketch.</desc>
    <g id="New---BrandGuideline" stroke="none" stroke-width="1" fill="none" fill-rule="evenodd">
        <g id="kudobuzz-logo" transform="translate(-44.000000, -45.000000)">
            <g id="Group-10" transform="translate(0.000000, 0.000000)" fill="#E9EDF1" opacity="0">
                <rect id="Rectangle" x="0" y="0.35129796" width="523.01414" height="178.351272"></rect>
            </g>
            <g id="Group-12" transform="translate(37.798363, 37.401519)" fill="#FC871F">
                <path d="M92.749534,76.24446 L92.749534,25.9818288 C92.749534,23.3065597 94.8605355,21.1177032 97.6210758,21.1177032 C100.381616,21.1177032 102.57381,23.3065597 102.57381,25.9818288 L102.57381,57.5986452 L121.004476,39.5203117 C122.303554,38.2232115 123.52144,37.4125239 125.226479,37.4125239 C127.824635,37.4125239 129.529675,39.5203117 129.529675,41.8713057 C129.529675,43.4926809 128.717751,44.7087123 127.337481,46.0058125 L115.97055,56.4636825 L128.961328,73.4070534 C129.854444,74.6230848 130.260406,75.5148411 130.260406,76.6498037 C130.260406,79.3250728 128.149404,81.1085855 125.632441,81.1085855 C123.683824,81.1085855 122.547131,80.4600355 121.329246,78.919729 L109.069199,62.6249083 L102.57381,68.786134 L102.57381,76.24446 C102.57381,79.0007978 100.381616,81.1085855 97.6210758,81.1085855 C94.9417278,81.1085855 92.749534,79.0007978 92.749534,76.24446 Z M171.337726,42.3577183 L171.337726,76.24446 C171.337726,78.919729 169.145533,81.1085855 166.384992,81.1085855 C163.705644,81.1085855 161.432258,79.0007978 161.432258,76.24446 L161.432258,74.0556034 C158.671718,78.1090414 154.693292,81.5949981 148.035518,81.5949981 C138.373627,81.5949981 132.771354,75.1094973 132.771354,65.1380398 L132.771354,42.3577183 C132.771354,39.6013805 134.963548,37.4125239 137.642896,37.4125239 C140.403436,37.4125239 142.59563,39.6013805 142.59563,42.3577183 L142.59563,62.2195645 C142.59563,68.8672028 145.924517,72.5963658 151.770367,72.5963658 C157.453832,72.5963658 161.432258,68.7050653 161.432258,62.057427 L161.432258,42.3577183 C161.432258,39.6013805 163.624452,37.4125239 166.384992,37.4125239 C169.06434,37.4125239 171.337726,39.6013805 171.337726,42.3577183 Z M219.72236,25.9818288 L219.72236,76.24446 C219.72236,79.0007978 217.530166,81.1085855 214.850818,81.1085855 C212.090278,81.1085855 209.898084,79.0007978 209.898084,76.24446 L209.898084,73.5691909 C206.731582,78.0279727 202.266002,81.5949981 195.283459,81.5949981 C185.215605,81.5949981 175.39133,73.5691909 175.39133,59.3821579 L175.39133,59.2200204 C175.39133,45.0329874 185.053221,37.0071801 195.283459,37.0071801 C202.347194,37.0071801 206.812774,40.4931368 209.898084,44.5465748 L209.898084,25.9818288 C209.898084,23.225491 212.090278,21.1177032 214.769626,21.1177032 C217.530166,21.1177032 219.72236,23.225491 219.72236,25.9818288 Z M197.638037,45.5193999 C190.899071,45.5193999 185.296798,50.7078006 185.296798,59.2200204 L185.296798,59.3821579 C185.296798,67.6511714 190.980263,73.0827783 197.638037,73.0827783 C204.214618,73.0827783 210.060469,67.5701026 210.060469,59.3821579 L210.060469,59.2200204 C210.060469,50.9510069 204.214618,45.5193999 197.638037,45.5193999 Z M246.428632,81.6760669 C233.356662,81.6760669 223.694771,71.7046094 223.694771,59.5442954 L223.694771,59.3821579 C223.694771,47.1407751 233.437854,37.0071801 246.591017,37.0071801 C259.74418,37.0071801 269.406071,46.9786376 269.406071,59.2200204 L269.406071,59.3821579 C269.406071,71.5424719 259.662987,81.6760669 246.428632,81.6760669 Z M246.591017,73.0827783 C254.547869,73.0827783 259.581795,66.9215526 259.581795,59.5442954 L259.581795,59.3821579 C259.581795,51.8427632 254.141907,45.6004687 246.428632,45.6004687 C238.552973,45.6004687 233.519046,51.7616945 233.519046,59.2200204 L233.519046,59.3821579 C233.519046,66.8404838 238.958935,73.0827783 246.591017,73.0827783 Z M273.378482,76.24446 L273.378482,25.9818288 C273.378482,23.225491 275.489483,21.1177032 278.250023,21.1177032 C281.010564,21.1177032 283.202758,23.225491 283.202758,25.9818288 L283.202758,45.0329874 C286.36926,40.5742056 290.83484,37.0071801 297.817383,37.0071801 C307.885236,37.0071801 317.709512,44.9519186 317.709512,59.2200204 L317.709512,59.3821579 C317.709512,73.5691909 307.966428,81.5949981 297.817383,81.5949981 C290.672455,81.5949981 286.206875,78.0279727 283.202758,74.0556034 L283.202758,76.24446 C283.202758,78.919729 281.010564,81.1085855 278.250023,81.1085855 C275.570676,81.1085855 273.378482,78.919729 273.378482,76.24446 Z M295.462804,73.0827783 C302.201771,73.0827783 307.722851,67.8133089 307.722851,59.3821579 L307.722851,59.2200204 C307.722851,50.9510069 302.120578,45.5193999 295.462804,45.5193999 C288.805031,45.5193999 282.959181,51.0320756 282.959181,59.2200204 L282.959181,59.3821579 C282.959181,67.5701026 288.805031,73.0827783 295.462804,73.0827783 Z M359.923526,42.3577183 L359.923526,76.24446 C359.923526,78.919729 357.731332,81.1085855 354.970792,81.1085855 C352.291444,81.1085855 350.018057,79.0007978 350.018057,76.24446 L350.018057,74.0556034 C347.257517,78.1090414 343.279091,81.5949981 336.621318,81.5949981 C326.959426,81.5949981 321.357153,75.1094973 321.357153,65.1380398 L321.357153,42.3577183 C321.357153,39.6013805 323.549347,37.4125239 326.228695,37.4125239 C328.989235,37.4125239 331.181429,39.6013805 331.181429,42.3577183 L331.181429,62.2195645 C331.181429,68.8672028 334.510316,72.5963658 340.356166,72.5963658 C346.039632,72.5963658 350.018057,68.7050653 350.018057,62.057427 L350.018057,42.3577183 C350.018057,39.6013805 352.210251,37.4125239 354.970792,37.4125239 C357.65014,37.4125239 359.923526,39.6013805 359.923526,42.3577183 Z M368.767478,80.7032417 C366.006938,80.7032417 363.977129,79.0007978 363.977129,76.7308725 L363.977129,76.568735 C363.977129,74.7041535 364.626668,73.4881221 366.169323,71.8667469 L388.984377,45.9247437 L368.767478,45.9247437 C366.494092,45.9247437 364.70786,44.141231 364.70786,41.9523745 C364.70786,39.6824492 366.494092,37.8989365 368.767478,37.8989365 L397.022421,37.8989365 C399.701769,37.8989365 401.731578,39.5203117 401.731578,41.790237 L401.731578,42.0334433 C401.731578,43.8980247 401.082039,45.1140561 399.620576,46.7354313 L376.72433,72.6774345 L397.834344,72.6774345 C400.10773,72.6774345 401.893962,74.4609472 401.893962,76.7308725 C401.893962,78.919729 400.10773,80.7032417 397.834344,80.7032417 L368.767478,80.7032417 Z M408.220952,80.7032417 C405.460411,80.7032417 403.430602,79.0007978 403.430602,76.7308725 L403.430602,76.568735 C403.430602,74.7041535 404.080141,73.4881221 405.622796,71.8667469 L428.43785,45.9247437 L408.220952,45.9247437 C405.947565,45.9247437 404.161333,44.141231 404.161333,41.9523745 C404.161333,39.6824492 405.947565,37.8989365 408.220952,37.8989365 L436.475894,37.8989365 C439.155242,37.8989365 441.185051,39.5203117 441.185051,41.790237 L441.185051,42.0334433 C441.185051,43.8980247 440.535512,45.1140561 439.07405,46.7354313 L416.177803,72.6774345 L437.287818,72.6774345 C439.561204,72.6774345 441.347436,74.4609472 441.347436,76.7308725 C441.347436,78.919729 439.561204,80.7032417 437.287818,80.7032417 L408.220952,80.7032417 Z" id="kudobuzz" fill-rule="nonzero"></path>
                <g id="Group-9" transform="translate(52.148981, 52.670416) rotate(45.000000) translate(-52.148981, -52.670416) translate(15.049059, 16.359854)">
                    <g id="Group-5" transform="translate(0.185615, 0.634866)">
                        <path d="M15.2235681,0 C23.6313126,-1.54447761e-15 30.4471362,6.8158236 30.4471362,15.2235681 L30.4471362,70.9351649 L13.5129972,70.9351649 C6.04997492,70.9351649 4.2282043e-15,64.88519 0,57.4221677 L0,15.2235681 C-1.02965174e-15,6.8158236 6.8158236,1.54447761e-15 15.2235681,0 Z M50.7261637,40.53438 L55.8429253,40.53438 C64.2378703,40.53438 71.0433178,47.3398275 71.0433178,55.7347724 L71.0433178,57.4221677 C71.0433178,64.88519 64.9933429,70.9351649 57.5303206,70.9351649 L37.2131665,70.9351649 L37.2131665,54.0473772 C37.2131665,46.5843549 43.2631414,40.53438 50.7261637,40.53438 Z" id="Combined-Shape"></path>
                    </g>
                </g>
            </g>
        </g>
    </g>
</svg>
